<?xml version="1.0" standalone="no"?><!DOCTYPE svg PUBLIC "-//W3C//DTD SVG 1.1//EN" "http://www.w3.org/Graphics/SVG/1.1/DTD/svg11.dtd"><svg t="1616252297394" class="icon" viewBox="0 0 1024 1024" version="1.1" xmlns="http://www.w3.org/2000/svg" p-id="3857" xmlns:xlink="http://www.w3.org/1999/xlink" width="200" height="200"><defs><style type="text/css">@font-face { font-family: element-icons; src: url("chrome-extension://moombeodfomdpjnpocobemoiaemednkg/fonts/element-icons.woff") format("woff"), url("chrome-extension://moombeodfomdpjnpocobemoiaemednkg/fonts/element-icons.ttf ") format("truetype"); }
</style></defs><path d="M757.4528 687.3088H443.648a96.9216 96.9216 0 0 1-90.112-60.5696L218.624 295.2704l-51.2-11.9296c-21.4528-5.0176-40.0384-18.7904-51.0464-37.8368-11.1616-19.3536-13.7728-41.7792-7.2704-63.232 12.1344-40.1408 54.528-63.9488 96.4608-54.1696l106.0352 24.7296a72.448 72.448 0 0 1 54.7328 55.808h462.592c30.208 0 58.1632 13.6704 76.6976 37.4784 18.5856 23.808 24.9856 54.272 17.6128 83.5584l-71.4752 284.1088a97.1264 97.1264 0 0 1-94.3104 73.5232zM186.7264 177.152c-13.0048 0-25.0368 7.9872-28.6208 19.968-2.3552 7.7312-1.4336 15.8208 2.6112 22.784 4.0448 6.9632 10.5472 11.776 18.3296 13.6192l53.76 12.544c14.5408 3.3792 26.5728 13.6704 32.2048 27.4944l135.9872 333.8752a45.9008 45.9008 0 0 0 42.6496 28.7232h313.8048c21.1456 0 39.5264-14.336 44.6976-34.816l71.4752-284.1088c3.4816-13.8752 0.4608-28.3136-8.3456-39.5776a45.83936 45.83936 0 0 0-36.352-17.7664H362.0352c-22.8352 0-41.984-16.5376-45.568-39.3728a21.64736 21.64736 0 0 0-16.4864-17.8176l-106.0352-24.7296c-2.4064-0.5632-4.8128-0.8192-7.2192-0.8192zM446.464 891.2384c-50.8928 0-92.2624-41.3696-92.2624-92.2624s41.3696-92.2624 92.2624-92.2624 92.2624 41.3696 92.2624 92.2624-41.4208 92.2624-92.2624 92.2624z m0-133.3248c-22.6304 0-41.0624 18.432-41.0624 41.0624s18.432 41.0624 41.0624 41.0624 41.0624-18.432 41.0624-41.0624-18.432-41.0624-41.0624-41.0624zM748.8 891.2384c-50.8928 0-92.2624-41.3696-92.2624-92.2624s41.3696-92.2624 92.2624-92.2624 92.2624 41.3696 92.2624 92.2624-41.4208 92.2624-92.2624 92.2624z m0-133.3248c-22.6304 0-41.0624 18.432-41.0624 41.0624s18.432 41.0624 41.0624 41.0624 41.0624-18.432 41.0624-41.0624-18.432-41.0624-41.0624-41.0624z" fill="#000000" p-id="3858"></path></svg>