<?xml version="1.0" standalone="no"?><!DOCTYPE svg PUBLIC "-//W3C//DTD SVG 1.1//EN" "http://www.w3.org/Graphics/SVG/1.1/DTD/svg11.dtd"><svg t="1616245149790" class="icon" viewBox="0 0 1024 1024" version="1.1" xmlns="http://www.w3.org/2000/svg" p-id="3054" xmlns:xlink="http://www.w3.org/1999/xlink" width="200" height="200"><defs><style type="text/css">@font-face { font-family: element-icons; src: url("chrome-extension://moombeodfomdpjnpocobemoiaemednkg/fonts/element-icons.woff") format("woff"), url("chrome-extension://moombeodfomdpjnpocobemoiaemednkg/fonts/element-icons.ttf ") format("truetype"); }
</style></defs><path d="M847.9744 716.8512H405.504c-24.3712 0-45.2608-16.5888-50.7392-40.3456L245.1456 201.472a11.0592 11.0592 0 0 0-10.8032-8.6016H110.336c-11.3152 0-20.48-9.1648-20.48-20.48s9.1648-20.48 20.48-20.48h124.0064c24.3712 0 45.2608 16.5888 50.7392 40.3456l109.6192 475.0336c1.1776 5.0688 5.632 8.6016 10.8032 8.6016h442.4704c11.3152 0 20.48 9.1648 20.48 20.48s-9.216 20.48-20.48 20.48z" fill="#888888" p-id="3055"></path><path d="M824.32 605.3376H364.2368c-11.3152 0-20.48-9.1648-20.48-20.48s9.1648-20.48 20.48-20.48H824.32c4.864 0 9.2672-3.2768 10.6496-7.936l74.0864-251.2384c1.3824-4.6592-0.512-8.0896-1.7408-9.7792-1.2288-1.6384-4.0448-4.4544-8.9088-4.4544H293.0688c-11.3152 0-20.48-9.1648-20.48-20.48s9.1648-20.48 20.48-20.48h605.3888c16.5888 0 31.744 7.6288 41.6768 20.8896 9.9328 13.2608 12.9024 30.0032 8.2432 45.8752l-74.0864 251.2384c-6.5024 22.016-27.0336 37.3248-49.9712 37.3248zM444.2112 877.4144c-35.7376 0-64.8192-29.0816-64.8192-64.8192s29.0816-64.8192 64.8192-64.8192 64.8192 29.0816 64.8192 64.8192-29.0816 64.8192-64.8192 64.8192z m0-88.6784c-13.1584 0-23.8592 10.7008-23.8592 23.8592s10.7008 23.8592 23.8592 23.8592 23.8592-10.7008 23.8592-23.8592-10.7008-23.8592-23.8592-23.8592zM797.2352 877.4144c-35.7376 0-64.8192-29.0816-64.8192-64.8192s29.0816-64.8192 64.8192-64.8192 64.8192 29.0816 64.8192 64.8192-29.0816 64.8192-64.8192 64.8192z m0-88.6784c-13.1584 0-23.8592 10.7008-23.8592 23.8592s10.7008 23.8592 23.8592 23.8592 23.8592-10.7008 23.8592-23.8592-10.7008-23.8592-23.8592-23.8592z" fill="#888888" p-id="3056"></path></svg>